<?xml version="1.0" encoding="utf-8"?>
<!-- Generator: Adobe Illustrator 18.1.1, SVG Export Plug-In . SVG Version: 6.00 Build 0)  -->
<!DOCTYPE svg PUBLIC "-//W3C//DTD SVG 1.1//EN" "http://www.w3.org/Graphics/SVG/1.1/DTD/svg11.dtd">
<svg version="1.1" id="Layer_1" xmlns:sketch="http://www.bohemiancoding.com/sketch/ns"
	 xmlns="http://www.w3.org/2000/svg" xmlns:xlink="http://www.w3.org/1999/xlink" x="0px" y="0px" viewBox="-80.7 360.6 423.9 93.2"
	 enable-background="new -80.7 360.6 423.9 93.2" xml:space="preserve">
<title>mango- + cli</title>
<desc>Created with Sketch.</desc>
<g id="Page-1" sketch:type="MSPage" opacity="0.15">
	<g id="mango-cli" transform="translate(-506.000000, -186.000000)" sketch:type="MSArtboardGroup">
		<g id="mango--_x2B_-cli" transform="translate(497.000000, 161.000000)" sketch:type="MSLayerGroup">
			<g enable-background="new    ">
				<path d="M-59.3,413.7c2.6-1.6,5.5-2.4,8.7-2.4c1.2,0,2.4,0.1,3.7,0.4c1.3,0.3,2.5,0.7,3.7,1.5c1.2,0.7,2.3,1.7,3.4,2.9
					c1,1.2,1.9,2.7,2.7,4.6c1.5-3,3.5-5.3,6.1-6.9c2.6-1.6,5.7-2.4,9.2-2.4c5.6,0,9.7,1.7,12.5,5c2.8,3.3,4.2,7.7,4.2,13.1v26.9
					h-6.4V432c0-4.6-0.9-8.3-2.6-11.1c-1.7-2.8-4.6-4.2-8.8-4.2c-2.3,0-4.3,0.5-5.9,1.4c-1.6,0.9-2.9,2.2-3.8,3.7
					c-1,1.5-1.7,3.3-2.1,5.2c-0.4,1.9-0.7,3.9-0.7,6v23.3h-6.4v-25.6c0-2.1-0.2-4.1-0.5-5.8c-0.3-1.7-0.9-3.2-1.6-4.4
					c-0.8-1.2-1.9-2.2-3.2-2.8c-1.4-0.7-3.1-1-5.2-1c-1.5,0-3,0.3-4.5,1c-1.5,0.7-2.9,1.7-4.1,3.1c-1.2,1.4-2.2,3.2-3,5.3
					c-0.7,2.2-1.1,4.7-1.1,7.6v22.5h-6.4v-34.2c0-1.2,0-2.7-0.1-4.6c-0.1-1.9-0.2-3.6-0.3-5.1h6.1c0.1,1.2,0.2,2.5,0.3,3.9
					c0.1,1.4,0.1,2.6,0.1,3.6h0.2C-63.8,417.4-61.9,415.3-59.3,413.7z"/>
				<path d="M39,427.9c0-3.8-1-6.6-3-8.5c-2-1.9-4.9-2.8-8.7-2.8c-2.6,0-5.1,0.5-7.3,1.4c-2.2,0.9-4.2,2.2-5.7,3.7l-3.6-4.2
					c1.8-1.8,4.2-3.3,7.2-4.5c3-1.2,6.3-1.8,10.1-1.8c2.4,0,4.6,0.3,6.6,1s3.9,1.6,5.4,2.9c1.6,1.3,2.8,3,3.7,5c0.9,2,1.3,4.3,1.3,7
					v19.2c0,1.7,0.1,3.4,0.2,5.2c0.1,1.8,0.3,3.3,0.6,4.6H40c-0.2-1.1-0.3-2.2-0.5-3.5c-0.1-1.2-0.2-2.5-0.2-3.7h-0.2
					c-2,2.9-4.3,5-6.8,6.3c-2.5,1.3-5.6,1.9-9.1,1.9c-1.7,0-3.4-0.2-5.2-0.7c-1.8-0.5-3.4-1.2-4.9-2.3c-1.5-1.1-2.7-2.4-3.7-4.1
					c-1-1.7-1.5-3.8-1.5-6.2c0-3.4,0.9-6.1,2.6-8c1.7-2,4-3.4,6.9-4.4c2.9-1,6.2-1.6,9.9-1.9c3.7-0.3,7.6-0.4,11.6-0.4L39,427.9
					L39,427.9z M37.1,434.3c-2.6,0-5.3,0.1-7.9,0.3c-2.7,0.2-5.1,0.7-7.2,1.3c-2.2,0.7-3.9,1.6-5.3,2.9c-1.4,1.3-2.1,2.9-2.1,5
					c0,1.6,0.3,2.9,0.9,3.9c0.6,1.1,1.4,1.9,2.4,2.6c1,0.7,2.1,1.1,3.3,1.4c1.2,0.3,2.4,0.4,3.7,0.4c2.2,0,4.2-0.4,6-1.2
					c1.7-0.8,3.2-1.8,4.4-3.2c1.2-1.3,2.1-2.9,2.7-4.6c0.6-1.7,0.9-3.6,0.9-5.5v-3.3C39,434.3,37.1,434.3,37.1,434.3z"/>
				<path d="M67.1,412.4c0.1,1.2,0.2,2.5,0.3,3.9c0.1,1.4,0.1,2.6,0.1,3.6h0.2c1.2-2.6,3.3-4.6,6.1-6.2c2.8-1.6,5.8-2.4,8.9-2.4
					c5.6,0,9.7,1.7,12.5,5c2.8,3.3,4.2,7.7,4.2,13.1v26.9H93V432c0-2.3-0.2-4.4-0.6-6.3c-0.4-1.9-1-3.5-1.9-4.8
					c-0.9-1.3-2.1-2.4-3.7-3.1c-1.5-0.7-3.4-1.1-5.8-1.1c-1.7,0-3.3,0.3-4.9,1c-1.6,0.7-3,1.7-4.3,3.1s-2.2,3.2-3,5.3
					c-0.7,2.2-1.1,4.7-1.1,7.6v22.5h-6.4v-34.2c0-1.2,0-2.7-0.1-4.6c-0.1-1.9-0.2-3.6-0.3-5.1H67.1z"/>
				<path d="M118.2,465.1c1.7,2.2,4.1,4.2,7.2,5.7c3,1.6,6.2,2.3,9.6,2.3c3.1,0,5.8-0.5,8-1.4c2.2-0.9,3.9-2.1,5.3-3.7
					c1.3-1.6,2.3-3.4,3-5.5c0.6-2.1,0.9-4.3,0.9-6.7v-8.2h-0.2c-1.7,2.7-4.1,4.9-7.2,6.4c-3.1,1.5-6.2,2.2-9.4,2.2
					c-3.4,0-6.5-0.6-9.3-1.7c-2.8-1.1-5.2-2.7-7.1-4.6c-2-2-3.5-4.3-4.6-7.1c-1.1-2.7-1.6-5.7-1.6-8.9c0-3.1,0.5-6.1,1.6-8.8
					c1.1-2.7,2.6-5.2,4.6-7.2c2-2.1,4.3-3.7,7.1-4.9c2.8-1.2,5.9-1.8,9.3-1.8c3.2,0,6.3,0.7,9.4,2.2c3.1,1.5,5.5,3.7,7.2,6.5h0.2
					v-7.6h6.4v43.5c0,2.4-0.3,4.9-1,7.6c-0.7,2.7-1.9,5.1-3.7,7.4c-1.8,2.2-4.2,4.1-7.3,5.6c-3.1,1.5-7,2.2-11.9,2.2
					c-4.1,0-7.9-0.8-11.6-2.3c-3.7-1.6-6.8-3.7-9.5-6.5L118.2,465.1z M119.4,433.8c0,2.3,0.4,4.5,1.1,6.6s1.8,3.9,3.2,5.4
					c1.4,1.6,3.1,2.8,5.2,3.7s4.4,1.4,7,1.4c2.4,0,4.7-0.4,6.7-1.2c2.1-0.8,3.8-2,5.3-3.5c1.5-1.5,2.7-3.3,3.5-5.4s1.3-4.4,1.3-7
					c0-2.3-0.4-4.5-1.3-6.6s-2-3.9-3.5-5.4c-1.5-1.6-3.3-2.8-5.3-3.7c-2.1-0.9-4.3-1.4-6.7-1.4c-2.6,0-5,0.5-7,1.4
					c-2.1,0.9-3.8,2.2-5.2,3.7c-1.4,1.6-2.5,3.4-3.2,5.4S119.4,431.5,119.4,433.8z"/>
				<path d="M218.6,434.3c0,3.3-0.6,6.4-1.7,9.2c-1.2,2.8-2.8,5.2-4.8,7.3c-2.1,2.1-4.5,3.7-7.4,4.8c-2.9,1.2-6,1.7-9.5,1.7
					c-3.4,0-6.5-0.6-9.4-1.7c-2.9-1.2-5.3-2.8-7.4-4.8c-2.1-2.1-3.7-4.5-4.8-7.3c-1.2-2.8-1.7-5.9-1.7-9.2c0-3.3,0.6-6.4,1.7-9.2
					c1.2-2.8,2.8-5.2,4.8-7.3c2.1-2.1,4.5-3.7,7.4-4.8c2.9-1.2,6-1.7,9.4-1.7c3.4,0,6.6,0.6,9.5,1.7c2.9,1.2,5.3,2.8,7.4,4.8
					s3.7,4.5,4.8,7.3C218,428,218.6,431,218.6,434.3z M211.8,434.3c0-2.4-0.4-4.7-1.2-6.9c-0.8-2.2-1.9-4-3.3-5.6
					c-1.4-1.6-3.2-2.9-5.2-3.8c-2.1-0.9-4.4-1.4-6.9-1.4c-2.6,0-4.9,0.5-6.9,1.4c-2,0.9-3.8,2.2-5.2,3.8c-1.4,1.6-2.5,3.5-3.3,5.6
					c-0.8,2.2-1.2,4.4-1.2,6.9c0,2.4,0.4,4.7,1.2,6.9c0.8,2.2,1.9,4,3.3,5.6c1.4,1.6,3.2,2.8,5.2,3.7c2,0.9,4.3,1.4,6.9,1.4
					c2.6,0,4.9-0.5,6.9-1.4c2.1-0.9,3.8-2.2,5.2-3.7c1.4-1.6,2.5-3.5,3.3-5.6C211.4,439.1,211.8,436.8,211.8,434.3z"/>
				<path d="M249.3,436.2h-21v-5.3h21V436.2z"/>
			</g>
			<g enable-background="new    ">
				<path d="M292.7,426.8c-0.9-1.1-2.1-2-3.6-2.7c-1.5-0.7-3-1-4.6-1c-1.6,0-3.1,0.3-4.4,1c-1.3,0.7-2.4,1.5-3.4,2.6
					c-0.9,1.1-1.7,2.4-2.2,3.8c-0.5,1.4-0.8,3-0.8,4.6c0,1.6,0.3,3.2,0.8,4.6c0.5,1.4,1.2,2.7,2.2,3.8c1,1.1,2.1,2,3.5,2.6
					c1.3,0.6,2.9,0.9,4.5,0.9c1.6,0,3.1-0.3,4.6-0.9c1.5-0.6,2.8-1.5,3.7-2.6l8.5,10.4c-1.9,1.9-4.4,3.3-7.5,4.4
					c-3.1,1.1-6.3,1.6-9.7,1.6c-3.7,0-7.1-0.6-10.3-1.7c-3.2-1.1-6-2.8-8.3-4.9c-2.4-2.2-4.2-4.8-5.6-7.8c-1.4-3.1-2-6.5-2-10.4
					c0-3.8,0.7-7.2,2-10.3c1.4-3.1,3.2-5.7,5.6-7.8c2.4-2.2,5.1-3.8,8.3-5c3.2-1.2,6.6-1.7,10.2-1.7c1.7,0,3.4,0.2,5,0.5
					c1.7,0.3,3.2,0.7,4.8,1.3c1.5,0.5,2.9,1.2,4.2,2c1.3,0.8,2.4,1.6,3.3,2.6L292.7,426.8z"/>
				<path d="M307.8,458.4v-70.8h15.6v70.8H307.8z"/>
				<path d="M352.2,396.8c0,1.2-0.2,2.3-0.7,3.3s-1.1,1.9-1.9,2.7c-0.8,0.7-1.7,1.3-2.8,1.8c-1.1,0.4-2.2,0.7-3.4,0.7
					c-2.5,0-4.6-0.8-6.3-2.5c-1.7-1.7-2.5-3.6-2.5-5.9c0-1.1,0.2-2.2,0.7-3.2c0.4-1,1.1-1.9,1.9-2.7c0.8-0.7,1.7-1.4,2.8-1.8
					c1.1-0.5,2.2-0.7,3.5-0.7c1.2,0,2.3,0.2,3.4,0.7c1.1,0.4,2,1,2.8,1.8c0.8,0.7,1.4,1.6,1.9,2.7S352.2,395.6,352.2,396.8z
					 M335.7,458.4v-46.6h15.4v46.6C351.1,458.4,335.7,458.4,335.7,458.4z"/>
			</g>
		</g>
	</g>
</g>
<g id="Page-1_1_" sketch:type="MSPage">
	<g id="mango-cli_1_" transform="translate(-506.000000, -186.000000)" sketch:type="MSArtboardGroup">
		<g id="mango--_x2B_-cli_1_" transform="translate(497.000000, 161.000000)" sketch:type="MSLayerGroup">
			<g enable-background="new    ">
				<path fill="#FFFFFF" d="M-59.3,411.7c2.6-1.6,5.5-2.4,8.7-2.4c1.2,0,2.4,0.1,3.7,0.4c1.3,0.3,2.5,0.7,3.7,1.5
					c1.2,0.7,2.3,1.7,3.4,2.9c1,1.2,1.9,2.7,2.7,4.6c1.5-3,3.5-5.3,6.1-6.9c2.6-1.6,5.7-2.4,9.2-2.4c5.6,0,9.7,1.7,12.5,5
					c2.8,3.3,4.2,7.7,4.2,13.1v26.9h-6.4V430c0-4.6-0.9-8.3-2.6-11.1c-1.7-2.8-4.6-4.2-8.8-4.2c-2.3,0-4.3,0.5-5.9,1.4
					c-1.6,0.9-2.9,2.2-3.8,3.7c-1,1.5-1.7,3.3-2.1,5.2c-0.4,1.9-0.7,3.9-0.7,6v23.3h-6.4v-25.6c0-2.1-0.2-4.1-0.5-5.8
					c-0.3-1.7-0.9-3.2-1.6-4.4c-0.8-1.2-1.9-2.2-3.2-2.8c-1.4-0.7-3.1-1-5.2-1c-1.5,0-3,0.3-4.5,1c-1.5,0.7-2.9,1.7-4.1,3.1
					c-1.2,1.4-2.2,3.2-3,5.3c-0.7,2.2-1.1,4.7-1.1,7.6v22.5h-6.4v-34.2c0-1.2,0-2.7-0.1-4.6c-0.1-1.9-0.2-3.6-0.3-5.1h6.1
					c0.1,1.2,0.2,2.5,0.3,3.9c0.1,1.4,0.1,2.6,0.1,3.6h0.2C-63.8,415.4-61.9,413.3-59.3,411.7z"/>
				<path fill="#FFFFFF" d="M39,425.9c0-3.8-1-6.6-3-8.5c-2-1.9-4.9-2.8-8.7-2.8c-2.6,0-5.1,0.5-7.3,1.4c-2.2,0.9-4.2,2.2-5.7,3.7
					l-3.6-4.2c1.8-1.8,4.2-3.3,7.2-4.5c3-1.2,6.3-1.8,10.1-1.8c2.4,0,4.6,0.3,6.6,1s3.9,1.6,5.4,2.9c1.6,1.3,2.8,3,3.7,5
					c0.9,2,1.3,4.3,1.3,7v19.2c0,1.7,0.1,3.4,0.2,5.2c0.1,1.8,0.3,3.3,0.6,4.6H40c-0.2-1.1-0.3-2.2-0.5-3.5
					c-0.1-1.2-0.2-2.5-0.2-3.7h-0.2c-2,2.9-4.3,5-6.8,6.3c-2.5,1.3-5.6,1.9-9.1,1.9c-1.7,0-3.4-0.2-5.2-0.7
					c-1.8-0.5-3.4-1.2-4.9-2.3c-1.5-1.1-2.7-2.4-3.7-4.1c-1-1.7-1.5-3.8-1.5-6.2c0-3.4,0.9-6.1,2.6-8c1.7-2,4-3.4,6.9-4.4
					c2.9-1,6.2-1.6,9.9-1.9c3.7-0.3,7.6-0.4,11.6-0.4L39,425.9L39,425.9z M37.1,432.3c-2.6,0-5.3,0.1-7.9,0.3
					c-2.7,0.2-5.1,0.7-7.2,1.3c-2.2,0.7-3.9,1.6-5.3,2.9c-1.4,1.3-2.1,2.9-2.1,5c0,1.6,0.3,2.9,0.9,3.9c0.6,1.1,1.4,1.9,2.4,2.6
					c1,0.7,2.1,1.1,3.3,1.4c1.2,0.3,2.4,0.4,3.7,0.4c2.2,0,4.2-0.4,6-1.2c1.7-0.8,3.2-1.8,4.4-3.2c1.2-1.3,2.1-2.9,2.7-4.6
					c0.6-1.7,0.9-3.6,0.9-5.5v-3.3C39,432.3,37.1,432.3,37.1,432.3z"/>
				<path fill="#FFFFFF" d="M67.1,410.4c0.1,1.2,0.2,2.5,0.3,3.9c0.1,1.4,0.1,2.6,0.1,3.6h0.2c1.2-2.6,3.3-4.6,6.1-6.2
					c2.8-1.6,5.8-2.4,8.9-2.4c5.6,0,9.7,1.7,12.5,5c2.8,3.3,4.2,7.7,4.2,13.1v26.9H93V430c0-2.3-0.2-4.4-0.6-6.3
					c-0.4-1.9-1-3.5-1.9-4.8c-0.9-1.3-2.1-2.4-3.7-3.1c-1.5-0.7-3.4-1.1-5.8-1.1c-1.7,0-3.3,0.3-4.9,1c-1.6,0.7-3,1.7-4.3,3.1
					s-2.2,3.2-3,5.3c-0.7,2.2-1.1,4.7-1.1,7.6v22.5h-6.4v-34.2c0-1.2,0-2.7-0.1-4.6c-0.1-1.9-0.2-3.6-0.3-5.1H67.1z"/>
				<path fill="#FFFFFF" d="M118.2,463.1c1.7,2.2,4.1,4.2,7.2,5.7c3,1.6,6.2,2.3,9.6,2.3c3.1,0,5.8-0.5,8-1.4
					c2.2-0.9,3.9-2.1,5.3-3.7c1.3-1.6,2.3-3.4,3-5.5c0.6-2.1,0.9-4.3,0.9-6.7v-8.2h-0.2c-1.7,2.7-4.1,4.9-7.2,6.4
					c-3.1,1.5-6.2,2.2-9.4,2.2c-3.4,0-6.5-0.6-9.3-1.7c-2.8-1.1-5.2-2.7-7.1-4.6c-2-2-3.5-4.3-4.6-7.1c-1.1-2.7-1.6-5.7-1.6-8.9
					c0-3.1,0.5-6.1,1.6-8.8c1.1-2.7,2.6-5.2,4.6-7.2c2-2.1,4.3-3.7,7.1-4.9c2.8-1.2,5.9-1.8,9.3-1.8c3.2,0,6.3,0.7,9.4,2.2
					c3.1,1.5,5.5,3.7,7.2,6.5h0.2v-7.6h6.4v43.5c0,2.4-0.3,4.9-1,7.6c-0.7,2.7-1.9,5.1-3.7,7.4c-1.8,2.2-4.2,4.1-7.3,5.6
					c-3.1,1.5-7,2.2-11.9,2.2c-4.1,0-7.9-0.8-11.6-2.3c-3.7-1.6-6.8-3.7-9.5-6.5L118.2,463.1z M119.4,431.8c0,2.3,0.4,4.5,1.1,6.6
					s1.8,3.9,3.2,5.4c1.4,1.6,3.1,2.8,5.2,3.7s4.4,1.4,7,1.4c2.4,0,4.7-0.4,6.7-1.2c2.1-0.8,3.8-2,5.3-3.5c1.5-1.5,2.7-3.3,3.5-5.4
					s1.3-4.4,1.3-7c0-2.3-0.4-4.5-1.3-6.6s-2-3.9-3.5-5.4c-1.5-1.6-3.3-2.8-5.3-3.7c-2.1-0.9-4.3-1.4-6.7-1.4c-2.6,0-5,0.5-7,1.4
					c-2.1,0.9-3.8,2.2-5.2,3.7c-1.4,1.6-2.5,3.4-3.2,5.4S119.4,429.5,119.4,431.8z"/>
				<path fill="#FFFFFF" d="M218.6,432.3c0,3.3-0.6,6.4-1.7,9.2c-1.2,2.8-2.8,5.2-4.8,7.3c-2.1,2.1-4.5,3.7-7.4,4.8
					c-2.9,1.2-6,1.7-9.5,1.7c-3.4,0-6.5-0.6-9.4-1.7c-2.9-1.2-5.3-2.8-7.4-4.8c-2.1-2.1-3.7-4.5-4.8-7.3c-1.2-2.8-1.7-5.9-1.7-9.2
					c0-3.3,0.6-6.4,1.7-9.2c1.2-2.8,2.8-5.2,4.8-7.3c2.1-2.1,4.5-3.7,7.4-4.8c2.9-1.2,6-1.7,9.4-1.7c3.4,0,6.6,0.6,9.5,1.7
					c2.9,1.2,5.3,2.8,7.4,4.8s3.7,4.5,4.8,7.3C218,426,218.6,429,218.6,432.3z M211.8,432.3c0-2.4-0.4-4.7-1.2-6.9
					c-0.8-2.2-1.9-4-3.3-5.6c-1.4-1.6-3.2-2.9-5.2-3.8c-2.1-0.9-4.4-1.4-6.9-1.4c-2.6,0-4.9,0.5-6.9,1.4c-2,0.9-3.8,2.2-5.2,3.8
					c-1.4,1.6-2.5,3.5-3.3,5.6c-0.8,2.2-1.2,4.4-1.2,6.9c0,2.4,0.4,4.7,1.2,6.9c0.8,2.2,1.9,4,3.3,5.6c1.4,1.6,3.2,2.8,5.2,3.7
					c2,0.9,4.3,1.4,6.9,1.4c2.6,0,4.9-0.5,6.9-1.4c2.1-0.9,3.8-2.2,5.2-3.7c1.4-1.6,2.5-3.5,3.3-5.6
					C211.4,437.1,211.8,434.8,211.8,432.3z"/>
				<path fill="#FFFFFF" d="M249.3,434.2h-21v-5.3h21V434.2z"/>
			</g>
			<g enable-background="new    ">
				<path fill="#FFFFFF" d="M292.7,424.8c-0.9-1.1-2.1-2-3.6-2.7c-1.5-0.7-3-1-4.6-1c-1.6,0-3.1,0.3-4.4,1c-1.3,0.7-2.4,1.5-3.4,2.6
					c-0.9,1.1-1.7,2.4-2.2,3.8c-0.5,1.4-0.8,3-0.8,4.6c0,1.6,0.3,3.2,0.8,4.6c0.5,1.4,1.2,2.7,2.2,3.8c1,1.1,2.1,2,3.5,2.6
					c1.3,0.6,2.9,0.9,4.5,0.9c1.6,0,3.1-0.3,4.6-0.9c1.5-0.6,2.8-1.5,3.7-2.6l8.5,10.4c-1.9,1.9-4.4,3.3-7.5,4.4
					c-3.1,1.1-6.3,1.6-9.7,1.6c-3.7,0-7.1-0.6-10.3-1.7c-3.2-1.1-6-2.8-8.3-4.9c-2.4-2.2-4.2-4.8-5.6-7.8c-1.4-3.1-2-6.5-2-10.4
					c0-3.8,0.7-7.2,2-10.3c1.4-3.1,3.2-5.7,5.6-7.8c2.4-2.2,5.1-3.8,8.3-5c3.2-1.2,6.6-1.7,10.2-1.7c1.7,0,3.4,0.2,5,0.5
					c1.7,0.3,3.2,0.7,4.8,1.3c1.5,0.5,2.9,1.2,4.2,2c1.3,0.8,2.4,1.6,3.3,2.6L292.7,424.8z"/>
				<path fill="#FFFFFF" d="M307.8,456.4v-70.8h15.6v70.8H307.8z"/>
				<path fill="#FFFFFF" d="M352.2,394.8c0,1.2-0.2,2.3-0.7,3.3s-1.1,1.9-1.9,2.7c-0.8,0.7-1.7,1.3-2.8,1.8
					c-1.1,0.4-2.2,0.7-3.4,0.7c-2.5,0-4.6-0.8-6.3-2.5c-1.7-1.7-2.5-3.6-2.5-5.9c0-1.1,0.2-2.2,0.7-3.2c0.4-1,1.1-1.9,1.9-2.7
					c0.8-0.7,1.7-1.4,2.8-1.8c1.1-0.5,2.2-0.7,3.5-0.7c1.2,0,2.3,0.2,3.4,0.7c1.1,0.4,2,1,2.8,1.8c0.8,0.7,1.4,1.6,1.9,2.7
					S352.2,393.6,352.2,394.8z M335.7,456.4v-46.6h15.4v46.6C351.1,456.4,335.7,456.4,335.7,456.4z"/>
			</g>
		</g>
	</g>
</g>
</svg>
