<?xml version="1.0" encoding="UTF-8" standalone="no"?>
<svg width="285px" height="84px" viewBox="0 0 285 84" version="1.1" xmlns="http://www.w3.org/2000/svg" xmlns:xlink="http://www.w3.org/1999/xlink" xmlns:sketch="http://www.bohemiancoding.com/sketch/ns">
    <!-- Generator: Sketch 3.3.3 (12072) - http://www.bohemiancoding.com/sketch -->
    <title>logo copy 2</title>
    <desc>Created with Sketch.</desc>
    <defs></defs>
    <g id="Page-1" stroke="none" stroke-width="1" fill="none" fill-rule="evenodd" sketch:type="MSPage">
        <g id="Desktop-HD" sketch:type="MSArtboardGroup" transform="translate(-55.000000, -181.000000)" fill="#DA4027">
            <g id="logo-copy-2" sketch:type="MSLayerGroup" transform="translate(55.000000, 181.000000)">
                <path d="M75.0921436,0.489517241 C51.3066252,0.489517241 31.9566276,18.8246897 31.9566276,41.3642069 C31.9566276,63.8993793 51.3066252,82.2374483 75.0921436,82.2374483 C98.8761335,82.2374483 118.229188,63.8993793 118.229188,41.3642069 C118.229188,18.8246897 98.8761335,0.489517241 75.0921436,0.489517241 L75.0921436,0.489517241 Z M75.0921436,64.2107586 C61.7718253,64.2107586 50.9780115,53.9815862 50.9780115,41.3642069 C50.9780115,28.7424828 61.7718253,18.5133103 75.0921436,18.5133103 C88.409405,18.5133103 99.2047472,28.7424828 99.2047472,41.3642069 C99.2047472,53.9815862 88.409405,64.2107586 75.0921436,64.2107586 L75.0921436,64.2107586 Z" id="Fill-1" sketch:type="MSShapeGroup"></path>
                <path d="M0.114723937,0.729931034 L18.452897,0.729931034 L18.452897,63.0883448 L0.114723937,63.0883448 L0.114723937,0.729931034 Z" id="Fill-2" sketch:type="MSShapeGroup"></path>
                <path d="M9.28381048,83.1208966 L9.28533892,83.1208966 L0.114723937,68.475931 L18.4544255,68.475931 L9.28381048,83.1208966" id="Fill-3" sketch:type="MSShapeGroup"></path>
                <path d="M140.690442,6.43034483 L140.690442,23.1724138 L136.561407,23.1724138 L136.561407,6.43034483 L140.690442,6.43034483 Z M158.892402,6.43034483 L158.892402,23.1724138 L155.716221,23.1724138 L147.751337,13.9888966 L147.751337,23.1724138 L143.622302,23.1724138 L143.622302,6.43034483 L146.77405,6.43034483 L154.787799,15.860069 L154.787799,6.43034483 L158.892402,6.43034483 Z M168.59197,6.06103448 C170.139348,6.06103448 171.597119,6.42213432 172.965327,7.14434483 C173.714583,7.55469171 174.333525,8.14558235 174.822171,8.91703448 C175.310817,9.68848662 175.604,10.5912362 175.701729,11.6253103 L171.548261,11.6253103 C171.303938,10.2137171 170.408102,9.50793103 168.860724,9.50793103 C168.127755,9.50793103 167.549533,9.6556537 167.12604,9.95110345 C166.702547,10.2465532 166.490804,10.6568939 166.490804,11.1821379 C166.490804,11.6088987 166.641468,11.9412747 166.942799,12.1792759 C167.24413,12.4172771 167.728697,12.6101372 168.396513,12.7578621 L170.717568,13.2995172 C172.427828,13.6934502 173.690143,14.255617 174.504553,14.9860345 C175.318962,15.7164519 175.726161,16.7464071 175.726161,18.075931 C175.726161,19.7501463 175.099075,21.0796502 173.844884,22.0644828 C172.590694,23.0329014 170.92118,23.5171034 168.836291,23.5171034 C166.800268,23.5171034 165.090034,23.0246946 163.705538,22.0398621 C162.288465,21.0222018 161.4985,19.5449752 161.335618,17.6081379 L165.464653,17.6081379 C165.594959,18.3467623 165.96551,18.9253427 166.576317,19.3438966 C167.187124,19.7624504 167.981161,19.9717241 168.958452,19.9717241 C169.723997,19.9717241 170.306291,19.8404151 170.705352,19.5777931 C171.104412,19.3151711 171.30394,18.9540713 171.30394,18.4944828 C171.30394,17.8051 170.717574,17.3291048 169.544824,17.0664828 L166.808422,16.4509655 C165.163315,16.0734464 163.949863,15.4907626 163.16803,14.7028966 C162.386197,13.9150305 161.995286,12.8563515 161.995286,11.5268276 C161.995286,9.86902619 162.59794,8.54772906 163.803266,7.56289655 C165.008592,6.56165017 166.604811,6.06103448 168.59197,6.06103448 L168.59197,6.06103448 Z M191.484905,10.148069 L186.183126,10.148069 L186.183126,23.1724138 L182.078523,23.1724138 L182.078523,10.148069 L176.776744,10.148069 L176.776744,6.43034483 L191.484905,6.43034483 L191.484905,10.148069 Z M197.641809,6.43034483 L197.641809,23.1724138 L193.512774,23.1724138 L193.512774,6.43034483 L197.641809,6.43034483 Z M214.377839,10.148069 L209.07606,10.148069 L209.07606,23.1724138 L204.971457,23.1724138 L204.971457,10.148069 L199.669678,10.148069 L199.669678,6.43034483 L214.377839,6.43034483 L214.377839,10.148069 Z M231.407055,6.43034483 L231.407055,15.3676552 C231.407055,17.9446336 230.714818,19.9553031 229.330322,21.3997241 C227.929537,22.8277313 226.040136,23.5417241 223.66206,23.5417241 C221.251408,23.5417241 219.362007,22.8277313 217.993799,21.3997241 C216.625591,19.971717 215.941497,17.9610474 215.941497,15.3676552 L215.941497,6.43034483 L220.094965,6.43034483 L220.094965,15.4415172 C220.094965,16.7217995 220.416652,17.7435479 221.060035,18.5067931 C221.703419,19.2700383 222.570752,19.6516552 223.66206,19.6516552 C224.753369,19.6516552 225.624774,19.2700383 226.276302,18.5067931 C226.927829,17.7435479 227.253588,16.7217995 227.253588,15.4415172 L227.253588,6.43034483 L231.407055,6.43034483 Z M247.678874,10.148069 L242.377095,10.148069 L242.377095,23.1724138 L238.272492,23.1724138 L238.272492,10.148069 L232.970714,10.148069 L232.970714,6.43034483 L247.678874,6.43034483 L247.678874,10.148069 Z M147.922362,47.8090345 L140.885899,47.8090345 L139.786452,50.6896552 L135.388663,50.6896552 L142.449558,33.8491034 L146.407568,33.8491034 L153.44403,50.6896552 L149.046241,50.6896552 L147.922362,47.8090345 Z M146.554161,44.2636552 L144.404131,38.6993793 L142.254101,44.2636552 L146.554161,44.2636552 Z M161.702101,44.5344828 L159.332181,47.292 L159.332181,50.6896552 L155.203146,50.6896552 L155.203146,33.9475862 L159.332181,33.9475862 L159.332181,41.5553793 L165.953296,33.9475862 L170.839729,33.9475862 L164.511799,41.2845517 L171.377236,50.6896552 L166.344211,50.6896552 L161.702101,44.5344828 Z M186.305286,37.6653103 L181.003508,37.6653103 L181.003508,50.6896552 L176.898905,50.6896552 L176.898905,37.6653103 L171.597126,37.6653103 L171.597126,33.9475862 L186.305286,33.9475862 L186.305286,37.6653103 Z M192.462191,33.9475862 L192.462191,50.6896552 L188.333156,50.6896552 L188.333156,33.9475862 L192.462191,33.9475862 Z M212.740884,33.9475862 L205.557829,50.7881379 L201.37993,50.7881379 L194.172442,33.9475862 L198.716824,33.9475862 L203.456663,45.2977241 L208.196503,33.9475862 L212.740884,33.9475862 Z M229.721236,33.9475862 L229.721236,50.6896552 L226.545055,50.6896552 L218.580171,41.5061379 L218.580171,50.6896552 L214.451136,50.6896552 L214.451136,33.9475862 L217.602884,33.9475862 L225.616633,43.3773103 L225.616633,33.9475862 L229.721236,33.9475862 Z M236.782131,33.9475862 L236.782131,50.6896552 L232.653095,50.6896552 L232.653095,33.9475862 L236.782131,33.9475862 Z M239.029889,28.2848276 L236.586673,32.2241379 L232.897417,32.2241379 L234.85199,28.2848276 L239.029889,28.2848276 Z M254.715337,33.9475862 L254.715337,50.6896552 L250.610734,50.6896552 L250.610734,44.4113793 L243.843025,44.4113793 L243.843025,50.6896552 L239.71399,50.6896552 L239.71399,33.9475862 L243.843025,33.9475862 L243.843025,40.6690345 L250.610734,40.6690345 L250.610734,33.9475862 L254.715337,33.9475862 Z M259.772794,36.1388276 C261.450477,34.4481984 263.543478,33.6028966 266.051859,33.6028966 C268.543952,33.6028966 270.628809,34.4481984 272.306492,36.1388276 C274.000464,37.8130429 274.847437,39.8729533 274.847437,42.3186207 C274.847437,44.7478742 274.000464,46.8159915 272.306492,48.5230345 C270.612521,50.1972498 268.527664,51.0343448 266.051859,51.0343448 C263.543478,51.0343448 261.450477,50.1972498 259.772794,48.5230345 C258.095111,46.8324053 257.256281,44.7642881 257.256281,42.3186207 C257.256281,39.8729533 258.095111,37.8130429 259.772794,36.1388276 L259.772794,36.1388276 Z M262.753518,45.7655172 C263.63308,46.7011081 264.732516,47.1688966 266.051859,47.1688966 C267.371203,47.1688966 268.470639,46.7011081 269.350201,45.7655172 C270.229763,44.8135125 270.669538,43.6645585 270.669538,42.3186207 C270.669538,40.9726829 270.229763,39.8319357 269.350201,38.8963448 C268.470639,37.9443401 267.371203,37.4683448 266.051859,37.4683448 C264.732516,37.4683448 263.63308,37.9443401 262.753518,38.8963448 C261.873955,39.8319357 261.434181,40.9726829 261.434181,42.3186207 C261.434181,43.6645585 261.873955,44.8135125 262.753518,45.7655172 L262.753518,45.7655172 Z M138.687005,63.656069 C140.364688,61.9654398 142.457689,61.1201379 144.96607,61.1201379 C147.458163,61.1201379 149.54302,61.9654398 151.220704,63.656069 C152.914675,65.3302842 153.761648,67.3901947 153.761648,69.8358621 C153.761648,72.2651156 152.914675,74.3332328 151.220704,76.0402759 C149.526732,77.7144911 147.441875,78.5515862 144.96607,78.5515862 C142.457689,78.5515862 140.364688,77.7144911 138.687005,76.0402759 C137.009322,74.3496467 136.170492,72.2815295 136.170492,69.8358621 C136.170492,67.3901947 137.009322,65.3302842 138.687005,63.656069 L138.687005,63.656069 Z M141.667729,73.2827586 C142.547291,74.2183495 143.646727,74.6861379 144.96607,74.6861379 C146.285414,74.6861379 147.38485,74.2183495 148.264412,73.2827586 C149.143974,72.3307539 149.583749,71.1817998 149.583749,69.8358621 C149.583749,68.4899243 149.143974,67.3491771 148.264412,66.4135862 C147.38485,65.4615814 146.285414,64.9855862 144.96607,64.9855862 C143.646727,64.9855862 142.547291,65.4615814 141.667729,66.4135862 C140.788166,67.3491771 140.348392,68.4899243 140.348392,69.8358621 C140.348392,71.1817998 140.788166,72.3307539 141.667729,73.2827586 L141.667729,73.2827586 Z M167.907869,69.5896552 C168.852584,69.7866217 169.593686,70.2503067 170.131196,70.9807241 C170.668706,71.7111416 170.937457,72.5687537 170.937457,73.5535862 C170.937457,74.9815933 170.408099,76.1141337 169.349367,76.9512414 C168.290635,77.788349 166.841008,78.2068966 165.000442,78.2068966 L156.302593,78.2068966 L156.302593,61.4648276 L164.511799,61.4648276 C166.3035,61.4648276 167.700191,61.8628581 168.701915,62.658931 C169.703638,63.455004 170.204492,64.5424069 170.204492,65.9211724 C170.204492,66.7418662 169.992749,67.4968931 169.569256,68.1862759 C169.145763,68.8756586 168.591973,69.343447 167.907869,69.5896552 L167.907869,69.5896552 Z M160.431628,64.8624828 L160.431628,68.2847586 L163.852131,68.2847586 C164.617676,68.2847586 165.212185,68.1247257 165.635678,67.8046552 C166.059171,67.4845846 166.270915,67.04552 166.270915,66.4874483 C166.270915,65.4041325 165.464661,64.8624828 163.852131,64.8624828 L160.431628,64.8624828 Z M160.431628,74.76 L164.438503,74.76 C165.236624,74.76 165.847422,74.6040705 166.270915,74.2922069 C166.694407,73.9803433 166.906151,73.5535889 166.906151,73.011931 C166.906151,71.9778569 166.116185,71.4608276 164.536231,71.4608276 L160.431628,71.4608276 L160.431628,74.76 Z M181.150101,74.6615172 C182.225121,74.6615172 183.120958,74.3660719 183.837638,73.7751724 C184.554318,73.1842729 185.026669,72.3471778 185.254704,71.2638621 L189.505899,71.2638621 C189.245288,73.4304936 188.349452,75.1949587 186.818362,76.5573103 C185.30356,77.8868342 183.422303,78.5515862 181.174533,78.5515862 C178.666152,78.5515862 176.573151,77.7309048 174.895467,76.0895172 C173.217784,74.4481297 172.378955,72.3635988 172.378955,69.8358621 C172.378955,67.3245392 173.217784,65.2482151 174.895467,63.6068276 C176.589439,61.9490262 178.68244,61.1201379 181.174533,61.1201379 C183.438591,61.1201379 185.319848,61.7930967 186.818362,63.1390345 C188.349452,64.4849722 189.245288,66.2412305 189.505899,68.4078621 L185.254704,68.4078621 C185.026669,67.3245463 184.554318,66.4874512 183.837638,65.8965517 C183.120958,65.3056522 182.225121,65.0102069 181.150101,65.0102069 C179.798181,65.0102069 178.690601,65.4697885 177.827327,66.3889655 C176.980341,67.2917287 176.556854,68.4406827 176.556854,69.8358621 C176.556854,71.2474553 176.980341,72.4046162 177.827327,73.3073793 C178.674312,74.2101424 179.781893,74.6615172 181.150101,74.6615172 L181.150101,74.6615172 Z M202.06403,75.3262759 L195.027568,75.3262759 L193.928121,78.2068966 L189.530332,78.2068966 L196.591226,61.3663448 L200.549236,61.3663448 L207.585698,78.2068966 L203.18791,78.2068966 L202.06403,75.3262759 Z M200.695829,71.7808966 L198.545799,66.2166207 L196.395769,71.7808966 L200.695829,71.7808966 Z M224.614915,61.4648276 L224.614915,78.2068966 L221.438734,78.2068966 L213.473849,69.0233793 L213.473849,78.2068966 L209.344814,78.2068966 L209.344814,61.4648276 L212.496563,61.4648276 L220.510312,70.8945517 L220.510312,61.4648276 L224.614915,61.4648276 Z M234.314482,61.0955172 C235.86186,61.0955172 237.319631,61.4566171 238.687839,62.1788276 C239.437096,62.5891745 240.056038,63.1800651 240.544683,63.9515172 C241.033329,64.7229694 241.326512,65.625719 241.424241,66.6597931 L237.270774,66.6597931 C237.026451,65.2481998 236.130614,64.5424138 234.583236,64.5424138 C233.850268,64.5424138 233.272046,64.6901365 232.848553,64.9855862 C232.42506,65.281036 232.213317,65.6913767 232.213317,66.2166207 C232.213317,66.6433814 232.36398,66.9757574 232.665312,67.2137586 C232.966643,67.4517598 233.451209,67.64462 234.119025,67.7923448 L236.44008,68.334 C238.15034,68.727933 239.412656,69.2900998 240.227065,70.0205172 C241.041475,70.7509347 241.448673,71.7808899 241.448673,73.1104138 C241.448673,74.7846291 240.821588,76.114133 239.567397,77.0989655 C238.313206,78.0673842 236.643692,78.5515862 234.558804,78.5515862 C232.52278,78.5515862 230.812546,78.0591773 229.42805,77.0743448 C228.010978,76.0566846 227.221013,74.579458 227.058131,72.6426207 L231.187166,72.6426207 C231.317471,73.3812451 231.688022,73.9598255 232.298829,74.3783793 C232.909636,74.7969331 233.703674,75.0062069 234.680965,75.0062069 C235.44651,75.0062069 236.028804,74.8748979 236.427864,74.6122759 C236.826925,74.3496539 237.026452,73.988554 237.026452,73.5289655 C237.026452,72.8395828 236.440086,72.3635875 235.267337,72.1009655 L232.530935,71.4854483 C230.885828,71.1079291 229.672376,70.5252453 228.890543,69.7373793 C228.10871,68.9495133 227.717799,67.8908342 227.717799,66.5613103 C227.717799,64.903509 228.320453,63.5822118 229.525779,62.5973793 C230.731105,61.5961329 232.327323,61.0955172 234.314482,61.0955172 L234.314482,61.0955172 Z M257.207417,65.1825517 L251.905638,65.1825517 L251.905638,78.2068966 L247.801035,78.2068966 L247.801035,65.1825517 L242.499256,65.1825517 L242.499256,61.4648276 L257.207417,61.4648276 L257.207417,65.1825517 Z M276.582121,61.4648276 L269.399065,78.3053793 L265.221166,78.3053793 L258.013678,61.4648276 L262.55806,61.4648276 L267.297899,72.8149655 L272.037739,61.4648276 L276.582121,61.4648276 Z M282.421407,61.4648276 L282.421407,78.2068966 L278.292372,78.2068966 L278.292372,61.4648276 L282.421407,61.4648276 Z M284.669166,55.802069 L282.22595,59.7413793 L278.536693,59.7413793 L280.491266,55.802069 L284.669166,55.802069 Z" id="INSTITUT" sketch:type="MSShapeGroup"></path>
                <path d="M178.916714,59.9875862 L176.082583,56.0482759 L179.55195,56.0482759 L180.846854,57.6732414 L182.092894,56.0482759 L185.562261,56.0482759 L182.728131,59.9875862 L178.916714,59.9875862 Z M180.871286,74.6615172 C181.946307,74.6615172 182.846216,74.3660719 183.57104,73.7751724 C184.295865,73.1842729 184.772287,72.3471778 185.000322,71.2638621 L189.227085,71.2638621 C188.966474,73.4469075 188.078781,75.2113726 186.56398,76.5573103 C185.049178,77.8868342 183.159777,78.5515862 180.895719,78.5515862 C178.387338,78.5515862 176.294337,77.7309048 174.616653,76.0895172 C172.93897,74.4481297 172.100141,72.3635988 172.100141,69.8358621 C172.100141,67.3245392 172.93897,65.2482151 174.616653,63.6068276 C176.310625,61.9490262 178.403626,61.1201379 180.895719,61.1201379 C183.176065,61.1201379 185.065467,61.7930967 186.56398,63.1390345 C188.078781,64.4685584 188.966474,66.2248167 189.227085,68.4078621 L185.000322,68.4078621 C184.772287,67.3245463 184.295865,66.4874512 183.57104,65.8965517 C182.846216,65.3056522 181.946307,65.0102069 180.871286,65.0102069 C179.519367,65.0102069 178.411787,65.4697885 177.548513,66.3889655 C176.701527,67.2917287 176.27804,68.4406827 176.27804,69.8358621 C176.27804,71.2474553 176.701527,72.4046162 177.548513,73.3073793 C178.395498,74.2101424 179.503079,74.6615172 180.871286,74.6615172 L180.871286,74.6615172 Z" id="Č" sketch:type="MSShapeGroup"></path>
            </g>
        </g>
    </g>
</svg>